<svg width="94" height="28" viewBox="0 0 94 28" fill="none" xmlns="http://www.w3.org/2000/svg">
<g clip-path="url(#clip0_207_989)">
<path d="M0 27.6V22.8H13.6V27.6H0ZM0 4.8V0H13.6V4.8H0ZM3.6 27.6V0H10V27.6H3.6Z" fill="url(#paint0_linear_207_989)"/>
<path d="M45.6001 13.5001C45.6001 20.9558 39.5559 27.0001 32.1001 27.0001C24.6443 27.0001 18.6001 20.9558 18.6001 13.5001C18.6001 6.04417 24.6443 0 32.1001 0C39.5559 0 45.6001 6.04417 45.6001 13.5001Z" fill="url(#paint1_linear_207_989)"/>
<path d="M50.6001 6V0H70.1599V4.2L68.1999 6H50.6001ZM54.0402 27.6L65.5599 0L70.1599 4.2L61.0799 27.6H54.0402Z" fill="url(#paint2_linear_207_989)"/>
<path d="M75.6399 27.6V22.8H93.4799V27.6H75.6399ZM75.1599 3.48L83.6399 0L84.9999 4.92L77.0799 8.16L75.1599 3.48ZM81.5199 27.6V2.12L83.6399 0H87.9199V27.6H81.5199Z" fill="url(#paint3_linear_207_989)"/>
</g>
<defs>
<linearGradient id="paint0_linear_207_989" x1="68.3253" y1="0" x2="68.3253" y2="28.08" gradientUnits="userSpaceOnUse">
<stop stop-color="#DC2D06"/>
<stop offset="1" stop-color="#4B00AB"/>
</linearGradient>
<linearGradient id="paint1_linear_207_989" x1="32.1" y1="0.000135" x2="32.1" y2="27.0002" gradientUnits="userSpaceOnUse">
<stop stop-color="#FF00C7"/>
<stop offset="1" stop-color="#FFA800"/>
</linearGradient>
<linearGradient id="paint2_linear_207_989" x1="26.0192" y1="0" x2="26.0192" y2="28.08" gradientUnits="userSpaceOnUse">
<stop stop-color="#DC2D06"/>
<stop offset="1" stop-color="#4B00AB"/>
</linearGradient>
<linearGradient id="paint3_linear_207_989" x1="25.1542" y1="0" x2="25.1542" y2="28.08" gradientUnits="userSpaceOnUse">
<stop stop-color="#DC2D06"/>
<stop offset="1" stop-color="#4B00AB"/>
</linearGradient>
<clipPath id="clip0_207_989">
<rect width="93.4798" height="27.6" fill="white"/>
</clipPath>
</defs>
</svg>
